<svg xmlns="http://www.w3.org/2000/svg" viewBox="0 0 180 250">
  <defs>
    <linearGradient id="cityBlueBg" x1="0%" y1="0%" x2="100%" y2="100%">
      <stop offset="0%" style="stop-color:#1565C0"/>
      <stop offset="100%" style="stop-color:#0D47A1"/>
    </linearGradient>
    <linearGradient id="blueSkyline" x1="0%" y1="100%" x2="0%" y2="0%">
      <stop offset="0%" style="stop-color:#0D47A1"/>
      <stop offset="100%" style="stop-color:#1E88E5"/>
    </linearGradient>
    <linearGradient id="blueDisease" x1="0%" y1="0%" x2="100%" y2="100%">
      <stop offset="0%" style="stop-color:#64B5F6"/>
      <stop offset="100%" style="stop-color:#1976D2"/>
    </linearGradient>
  </defs>
  
  <!-- Card base -->
  <rect x="2" y="2" width="176" height="246" rx="12" fill="url(#cityBlueBg)" stroke="#42A5F5" stroke-width="2"/>
  
  <!-- Disease color indicator strip -->
  <rect x="2" y="2" width="36" height="246" rx="12" fill="#1976D2"/>
  <rect x="26" y="2" width="12" height="246" fill="#1976D2"/>
  
  <!-- Disease icon (virus-like) -->
  <g transform="translate(4, 12)">
    <circle cx="16" cy="16" r="12" fill="url(#blueDisease)" stroke="#0D47A1" stroke-width="1.5"/>
    <!-- Virus spikes -->
    <circle cx="16" cy="3" r="3" fill="#64B5F6"/>
    <circle cx="16" cy="29" r="3" fill="#64B5F6"/>
    <circle cx="3" cy="16" r="3" fill="#64B5F6"/>
    <circle cx="29" cy="16" r="3" fill="#64B5F6"/>
    <circle cx="7" cy="7" r="2.5" fill="#64B5F6"/>
    <circle cx="25" cy="7" r="2.5" fill="#64B5F6"/>
    <circle cx="7" cy="25" r="2.5" fill="#64B5F6"/>
    <circle cx="25" cy="25" r="2.5" fill="#64B5F6"/>
    <!-- Center -->
    <circle cx="16" cy="16" r="5" fill="#0D47A1"/>
  </g>
  
  <!-- City name area -->
  <rect x="42" y="10" width="128" height="32" rx="4" fill="#0D47A1" opacity="0.8"/>
  <text x="106" y="32" font-family="'Courier New', monospace" font-size="14" font-weight="bold" fill="#E3F2FD" text-anchor="middle">NEW YORK</text>
  
  <!-- Main illustration area - city skyline -->
  <rect x="46" y="50" width="120" height="140" rx="6" fill="#0a1628" stroke="#1976D2" stroke-width="1"/>
  
  <!-- Skyline illustration -->
  <g transform="translate(46, 50)">
    <!-- Sky gradient -->
    <rect x="0" y="0" width="120" height="100" fill="url(#blueSkyline)" opacity="0.3"/>
    
    <!-- Moon -->
    <circle cx="95" cy="25" r="12" fill="#E3F2FD" opacity="0.8"/>
    
    <!-- Buildings -->
    <rect x="10" y="70" width="15" height="70" fill="#1565C0"/>
    <rect x="12" y="75" width="4" height="6" fill="#64B5F6" opacity="0.5"/>
    <rect x="16" y="75" width="4" height="6" fill="#64B5F6" opacity="0.3"/>
    <rect x="12" y="85" width="4" height="6" fill="#64B5F6" opacity="0.4"/>
    <rect x="16" y="85" width="4" height="6" fill="#64B5F6" opacity="0.6"/>
    
    <rect x="28" y="50" width="18" height="90" fill="#0D47A1"/>
    <rect x="31" y="55" width="5" height="8" fill="#64B5F6" opacity="0.4"/>
    <rect x="39" y="55" width="5" height="8" fill="#64B5F6" opacity="0.5"/>
    <rect x="31" y="68" width="5" height="8" fill="#64B5F6" opacity="0.6"/>
    <rect x="39" y="68" width="5" height="8" fill="#64B5F6" opacity="0.3"/>
    <rect x="31" y="81" width="5" height="8" fill="#64B5F6" opacity="0.5"/>
    <rect x="39" y="81" width="5" height="8" fill="#64B5F6" opacity="0.4"/>
    <!-- Spire -->
    <polygon points="37,50 34,50 37,30 40,50" fill="#1976D2"/>
    
    <rect x="50" y="60" width="20" height="80" fill="#1976D2"/>
    <rect x="53" y="65" width="6" height="10" fill="#64B5F6" opacity="0.5"/>
    <rect x="61" y="65" width="6" height="10" fill="#64B5F6" opacity="0.3"/>
    <rect x="53" y="80" width="6" height="10" fill="#64B5F6" opacity="0.4"/>
    <rect x="61" y="80" width="6" height="10" fill="#64B5F6" opacity="0.6"/>
    
    <rect x="75" y="75" width="12" height="65" fill="#0D47A1"/>
    <rect x="78" y="80" width="4" height="6" fill="#64B5F6" opacity="0.5"/>
    <rect x="78" y="90" width="4" height="6" fill="#64B5F6" opacity="0.4"/>
    
    <rect x="90" y="55" width="22" height="85" fill="#1565C0"/>
    <rect x="93" y="60" width="7" height="10" fill="#64B5F6" opacity="0.4"/>
    <rect x="102" y="60" width="7" height="10" fill="#64B5F6" opacity="0.6"/>
    <rect x="93" y="75" width="7" height="10" fill="#64B5F6" opacity="0.5"/>
    <rect x="102" y="75" width="7" height="10" fill="#64B5F6" opacity="0.3"/>
    <rect x="93" y="90" width="7" height="10" fill="#64B5F6" opacity="0.6"/>
    <rect x="102" y="90" width="7" height="10" fill="#64B5F6" opacity="0.4"/>
  </g>
  
  <!-- Disease type label -->
  <rect x="46" y="195" width="120" height="40" rx="4" fill="#0D47A1" opacity="0.8"/>
  <text x="106" y="212" font-family="'Courier New', monospace" font-size="10" fill="#90CAF9" text-anchor="middle">DISEASE TYPE</text>
  <text x="106" y="228" font-family="'Courier New', monospace" font-size="12" font-weight="bold" fill="#E3F2FD" text-anchor="middle">🔵 BLUE FEVER</text>
  
  <!-- Card type indicator -->
  <text x="106" y="244" font-family="'Courier New', monospace" font-size="8" fill="#64B5F6" text-anchor="middle">CITY</text>
</svg>

